<svg width="23" height="22" viewBox="0 0 23 22" fill="none" xmlns="http://www.w3.org/2000/svg">
<path d="M20.6301 8.41256C20.5724 8.24274 20.4663 8.09353 20.3248 7.98335C20.1833 7.87316 20.0127 7.80681 19.8339 7.79251L14.6048 7.377L12.342 2.36798C12.2699 2.20665 12.1527 2.06963 12.0045 1.97344C11.8562 1.87726 11.6833 1.82602 11.5066 1.82593C11.33 1.82583 11.157 1.87687 11.0087 1.9729C10.8604 2.06892 10.743 2.20582 10.6707 2.36707L8.40793 7.377L3.17878 7.79251C3.00309 7.80642 2.83513 7.87066 2.69499 7.97754C2.55485 8.08442 2.44847 8.2294 2.38858 8.39516C2.32868 8.56091 2.31781 8.74041 2.35726 8.91218C2.3967 9.08395 2.4848 9.24072 2.61101 9.36373L6.47532 13.1308L5.10864 19.0488C5.06714 19.2279 5.08044 19.4154 5.14682 19.5869C5.21319 19.7584 5.32957 19.9059 5.48086 20.0105C5.63214 20.115 5.81135 20.1716 5.99523 20.173C6.1791 20.1744 6.35915 20.1205 6.51201 20.0183L11.5064 16.6888L16.5007 20.0183C16.6569 20.1221 16.8412 20.1755 17.0287 20.1713C17.2162 20.1672 17.3979 20.1058 17.5494 19.9953C17.701 19.8848 17.8151 19.7306 17.8763 19.5533C17.9376 19.3761 17.9431 19.1843 17.8921 19.0039L16.2145 13.1336L20.3751 9.38941C20.6475 9.14359 20.7475 8.76019 20.6301 8.41256Z" fill="#F3CD03"/>
</svg>
