<svg width="20" height="20" viewBox="0 0 20 20"  xmlns="http://www.w3.org/2000/svg">
<g clip-path="url(#clip0_1788_7)">
<g clip-path="url(#clip1_1788_7)">
<path d="M7.33229 17.9336C7.92139 17.9336 8.39896 17.4561 8.39896 16.867C8.39896 16.2779 7.92139 15.8003 7.33229 15.8003C6.74319 15.8003 6.26562 16.2779 6.26562 16.867C6.26562 17.4561 6.74319 17.9336 7.33229 17.9336Z" fill="white"/>
<path d="M14.801 17.9336C15.3901 17.9336 15.8677 17.4561 15.8677 16.867C15.8677 16.2779 15.3901 15.8003 14.801 15.8003C14.2119 15.8003 13.7344 16.2779 13.7344 16.867C13.7344 17.4561 14.2119 17.9336 14.801 17.9336Z" fill="white"/>
<path d="M16.9333 5.66678H5.104L4.66667 3.42678C4.64173 3.30449 4.57471 3.19483 4.47726 3.11687C4.37981 3.03891 4.25811 2.99759 4.13333 3.00011H2V4.06678H3.696L5.73333 14.3068C5.75827 14.4291 5.82529 14.5387 5.92274 14.6167C6.02019 14.6946 6.1419 14.736 6.26667 14.7334H15.8667V13.6668H6.704L6.26667 11.5334H15.8667C15.99 11.5365 16.1105 11.4967 16.2077 11.4208C16.305 11.345 16.3729 11.2378 16.4 11.1174L17.4667 6.31744C17.4845 6.23831 17.4841 6.15614 17.4655 6.07719C17.4468 5.99824 17.4103 5.9246 17.3589 5.86185C17.3075 5.79911 17.2424 5.74893 17.1687 5.71512C17.0949 5.68132 17.0144 5.66478 16.9333 5.66678ZM15.44 10.4668H6.064L5.31733 6.73344H16.2667L15.44 10.4668Z" fill="white"/>
</g>
</g>
<defs>
<clipPath id="clip0_1788_7">
<rect width="16" height="14.9334" fill="white" transform="translate(2 3)"/>
</clipPath>
<clipPath id="clip1_1788_7">
<rect width="16" height="14.9334" fill="white" transform="translate(2 3)"/>
</clipPath>
</defs>
</svg>
