<svg width="18" height="19" viewBox="0 0 18 19" fill="none" xmlns="http://www.w3.org/2000/svg">
<path fill-rule="evenodd" clip-rule="evenodd" d="M17.4842 1.34208C17.0155 0.873453 16.2557 0.873453 15.7871 1.34208L8.9996 8.1296L2.21248 1.34249C1.74385 0.873858 0.984052 0.873858 0.515423 1.34249C0.0467939 1.81112 0.046794 2.57091 0.515423 3.03954L7.30254 9.82666L0.51361 16.6156C0.0449806 17.0842 0.0449806 17.844 0.51361 18.3126C0.982239 18.7813 1.74204 18.7813 2.21067 18.3126L8.9996 11.5237L15.7889 18.313C16.2576 18.7817 17.0174 18.7817 17.486 18.313C17.9546 17.8444 17.9546 17.0846 17.486 16.616L10.6967 9.82666L17.4842 3.03914C17.9528 2.57051 17.9528 1.81071 17.4842 1.34208Z" fill="#252B42"/>
</svg>
