<svg width="32" height="27" viewBox="0 0 32 27" fill="none" xmlns="http://www.w3.org/2000/svg">
<g clip-path="url(#clip0_993_974)">
<g clip-path="url(#clip1_993_974)">
<path d="M19.9277 6.74951H27.9263V9.04639H19.9277V6.74951Z" fill="#0D5C63"/>
<path d="M19.9277 12.4917H27.9263V14.7886H19.9277V12.4917Z" fill="#0D5C63"/>
<path d="M19.9277 18.2339H27.9263V20.5308H19.9277V18.2339Z" fill="#0D5C63"/>
<path d="M30.2109 1.00732H2.78726C2.18134 1.00793 1.60042 1.25012 1.17197 1.68074C0.743525 2.11135 0.502558 2.69522 0.501953 3.3042V23.9761C0.502558 24.5851 0.743525 25.169 1.17197 25.5996C1.60042 26.0302 2.18134 26.2724 2.78726 26.273H30.2109C30.8168 26.2721 31.3975 26.0298 31.8259 25.5992C32.2543 25.1687 32.4953 24.585 32.4962 23.9761V3.3042C32.4956 2.69522 32.2547 2.11135 31.8262 1.68074C31.3978 1.25012 30.8169 1.00793 30.2109 1.00732ZM2.78726 3.3042H15.3564V23.9761H2.78726V3.3042ZM17.6418 23.9761V3.3042H30.2109L30.2132 23.9761H17.6418Z" fill="#0D5C63"/>
</g>
</g>
<defs>
<clipPath id="clip0_993_974">
<rect width="32" height="26.353" fill="white"/>
</clipPath>
<clipPath id="clip1_993_974">
<rect width="32" height="25.28" fill="white" transform="translate(0.5 1)"/>
</clipPath>
</defs>
</svg>
